<?xml version="1.0" encoding="utf-8"?>
<!-- Svg Vector Icons : http://www.onlinewebfonts.com/icon -->
<!DOCTYPE svg PUBLIC "-//W3C//DTD SVG 1.1//EN" "http://www.w3.org/Graphics/SVG/1.1/DTD/svg11.dtd">
<svg version="1.1" xmlns="http://www.w3.org/2000/svg" xmlns:xlink="http://www.w3.org/1999/xlink" x="0px" y="0px" viewBox="0 0 1000 1000" enable-background="new 0 0 1000 1000" xml:space="preserve">
<metadata> Svg Vector Icons : http://www.onlinewebfonts.com/icon </metadata>
<g><g transform="translate(0.000000,511.000000) scale(0.100000,-0.100000)"><path d="M2542.4,4485.9v-407.1h203.5h203.5v407.1V4893h-203.5h-203.5V4485.9z"/><path d="M881.1,4109.4l-145-145l274.8-274.8c150.1-150.1,284.9-272.2,300.2-272.2c33.1,0,264.6,234.1,264.6,269.7c0,12.7-122.1,147.6-274.8,297.7l-272.2,272.2L881.1,4109.4z"/><path d="M4175.7,3969.5l-284.9-285l134.8-134.8c73.8-71.2,145-132.3,157.7-132.3c15.3,0,150.1,122.1,300.2,274.8l272.2,272.2l-147.6,147.6l-145,145L4175.7,3969.5z"/><path d="M2593.2,3646.3c-786.1-124.7-1363.7-834.5-1315.3-1615.5c30.5-460.5,264.6-890.4,631-1157.6c129.8-91.6,132.3-89,160.3,183.2l17.8,170.4l-101.8,106.9c-58.5,58.5-147.6,193.4-201,297.7c-91.6,190.8-94.1,198.4-94.1,488.5c0,277.3,5.1,302.8,81.4,465.6c96.7,203.5,310.4,440.1,485.9,534.3c346,188.3,783.6,188.3,1129.6,0c175.5-94.1,389.2-330.7,485.9-534.3c76.3-165.4,81.4-188.3,81.4-470.7v-300.2h193.4h193.4l17.8,96.7c114.5,702.2-376.5,1465.4-1078.7,1679.1C3079.2,3651.4,2781.5,3676.9,2593.2,3646.3z"/><path d="M100,2247.1v-203.5h407.1h407.1v203.5v203.5H507.1H100V2247.1z"/><path d="M4577.7,2247.1v-203.5h407.1h407.1v203.5v203.5h-407.1h-407.1V2247.1z"/><path d="M2354.1,1542.3c-7.6-53.4-152.6-1200.8-320.6-2551.8c-167.9-1350.9-312.9-2498.3-320.6-2549.2l-15.3-96.7h1656.2h1656.2v-305.3v-305.3h-547h-547v-203.5V-4673h1908.1h1908.1v203.5v203.5h-547h-547v305.3v305.3h1630.8H9900l-15.3,96.7c-7.6,50.9-152.7,1198.3-320.5,2549.2c-167.9,1350.9-312.9,2498.3-320.6,2551.8l-15.3,94.1H5798.8H2369.4L2354.1,1542.3z M4577.7,1173.4c0-68.7-68.7-796.3-91.6-954L4473.4,110H3532h-938.8v58.5c0,30.5,28,279.9,63.6,552.1c35.6,272.2,63.6,498.7,63.6,503.7c0,2.5,417.2,5.1,928.6,5.1h928.6V1173.4z M6816.5,1186.2c0-25.4,22.9-274.8,50.9-554.6s50.9-511.4,50.9-513.9c0-5.1-457.9-7.6-1020.2-7.6H4877.9l15.3,122.1c17.8,134.8,91.6,915.9,91.6,966.8c0,22.9,201,30.5,915.9,30.5C6755.4,1229.4,6816.5,1226.9,6816.5,1186.2z M8877.2,1224.3c0-5.1,28-231.5,63.6-503.7c35.6-272.2,63.6-521.6,63.6-552.1V110h-839.6h-837l-12.7,84c-17.8,101.8-91.6,910.8-91.6,982c0,53.4,7.6,53.4,826.8,53.4C8505.8,1229.4,8877.2,1226.9,8877.2,1224.3z M4425-378.5c0-104.3-99.2-1208.5-117-1284.8l-10.2-58.5H3331h-966.8v53.4c0,71.3,152.6,1297.5,165.4,1340.8c7.6,22.9,221.3,30.5,954.1,30.5H4425V-378.5z M7012.4-894.9c30.5-320.6,61-638.6,68.7-704.7l12.7-122.1H5898.1H4702.3l12.7,84c7.6,43.3,38.2,351.1,68.7,679.3c28,328.2,56,613.1,61.1,630.9c10.2,25.4,234.1,30.5,1060.9,25.4l1050.7-7.6L7012.4-894.9z M9149.5-933.1c43.3-343.5,81.4-661.5,81.4-704.7l2.5-84h-865h-865l-10.2,58.5c-7.6,30.5-38.2,325.6-66.1,653.8S7368.6-386.1,7361-353l-10.2,56l857.4-5.1l859.9-7.6L9149.5-933.1z M4262.2-2197.5c-7.6-40.7-33.1-292.6-56-559.7l-43.2-491H3158.1H2155.7l12.7,71.2c7.6,38.2,38.2,290,71.2,559.7l58.5,488.5h989.7h989.7L4262.2-2197.5z M7132-2184.8c15.3-73.8,91.6-905.7,91.6-994.8v-68.7H5900.6h-1323v66.1c0,91.6,76.3,928.6,91.6,997.3l10.2,56h1221.2h1221.2L7132-2184.8z M9353-2574.1c30.5-236.6,61.1-485.9,68.7-552.1l17.8-122.1h-900.6h-900.6L7595-2770c-22.9,262-50.9,513.9-58.5,559.7l-12.7,81.4l885.4-5.1l887.9-7.6L9353-2574.1z M6231.4-3960.6v-305.3h-407.1h-407.1v305.3v305.3h407.1h407.1V-3960.6z"/><path d="M1003.2,796.9L723.3,517.1l147.6-145l145-147.6l279.9,279.9c152.6,152.7,279.9,290,279.9,305.3c0,33.1-234.1,267.1-269.7,267.1C1293.2,1076.8,1155.8,949.6,1003.2,796.9z"/></g></g>
</svg>